<?xml version="1.0" encoding="UTF-8" standalone="no"?>
<!-- Created with Inkscape (http://www.inkscape.org/) -->

<svg
   width="40.000221mm"
   height="57.825096mm"
   viewBox="0 0 40.000221 57.825096"
   version="1.1"
   id="svg5"
   xmlns="http://www.w3.org/2000/svg"
   xmlns:svg="http://www.w3.org/2000/svg">
  <defs
     id="defs2">
    <linearGradient
       id="linearGradient43980">
      <stop
         style="stop-color:#000000;stop-opacity:1;"
         offset="0"
         id="stop43978" />
    </linearGradient>
  </defs>
  <g
     id="layer1"
     transform="translate(-86.082003,-97.336476)">
    <text
       xml:space="preserve"
       style="font-style:normal;font-variant:normal;font-weight:normal;font-stretch:normal;font-size:12.9087px;font-family:Share;-inkscape-font-specification:Share;fill:#000000;stroke-width:0.30254"
       x="92.299873"
       y="98.839432"
       id="text113"
       transform="scale(0.92167896,1.0849765)"><tspan
         style="font-style:normal;font-variant:normal;font-weight:normal;font-stretch:normal;font-size:12.9087px;font-family:Share;-inkscape-font-specification:Share;stroke-width:0.30254"
         x="92.299873"
         y="98.839432"
         id="tspan117">Restaura</tspan></text>
    <text
       xml:space="preserve"
       style="font-style:normal;font-variant:normal;font-weight:bold;font-stretch:normal;font-size:20.1817px;font-family:Alkatra;-inkscape-font-specification:'Alkatra Bold';fill:#a30015;fill-opacity:1;stroke-width:0.473004"
       x="88.659866"
       y="150.10628"
       id="text179"
       transform="scale(0.96871984,1.0322902)"><tspan
         id="tspan177"
         style="font-style:normal;font-variant:normal;font-weight:bold;font-stretch:normal;font-family:Share;-inkscape-font-specification:'Share Bold';fill:#a30015;fill-opacity:1;stroke-width:0.473004"
         x="88.659866"
         y="150.10628">TOUR</tspan></text>
    <g
       id="g97434"
       transform="matrix(0.9724779,0,0,1.06143,2.9194535,-7.9426056)">
      <path
         style="fill:#a30015;fill-opacity:1;stroke-width:0.253003"
         d="m 85.51613,113.01613 c 4.130701,8.76816 10.477358,23.95007 14.187477,24.74257 3.096343,-0.31608 8.524643,-5.35421 11.769233,-7.00063 l -2.7579,-4.79033 -7.1381,4.43549 c -4.518013,-5.37141 -7.270198,-13.57162 -10.707141,-19.87097 0,0 -1.724172,-0.12748 -3.186649,0.52713 -1.268969,0.568 -2.16692,1.95674 -2.16692,1.95674 z"
         id="path19398" />
      <path
         style="fill:none;fill-opacity:1;stroke:#000000;stroke-width:0.239059;stroke-linecap:butt;stroke-linejoin:miter;stroke-dasharray:none;stroke-opacity:1"
         d="m 108.74719,126.03759 1.27697,-0.95863 3.04453,5.34344 -1.32385,0.85442 z"
         id="path41906" />
      <ellipse
         style="fill:none;fill-opacity:1;stroke:#000000;stroke-width:0.239059;stroke-linecap:butt;stroke-linejoin:miter;stroke-dasharray:none;stroke-opacity:1"
         id="path46269"
         ry="0.29303473"
         rx="0.26548609"
         cy="130.14328"
         cx="112.01913" />
      <path
         style="fill:none;fill-opacity:1;stroke:#000000;stroke-width:0.239059;stroke-linecap:butt;stroke-linejoin:miter;stroke-dasharray:none;stroke-opacity:1"
         d="m 112.56788,129.51613 c 3.76999,-2.17813 6.33302,-4.22213 7.78569,-5.24828 3.01261,-2.12808 3.75074,-3.70601 2.04668,-3.35918 -1.73627,0.80267 -2.15141,1.14724 -2.8684,1.49517 -3.29449,1.5987 -5.74564,1.90057 -7.51209,1.82088 -0.81558,-0.37661 -1.22773,-3.48023 -2.30481,-3.3152 -0.31473,0.97917 0.70336,3.25439 0.78451,4.8808 z"
         id="path59339" />
      <rect
         style="fill:none;fill-opacity:1;stroke:#000000;stroke-width:0.240039;stroke-linecap:butt;stroke-linejoin:miter;stroke-dasharray:none;stroke-opacity:1"
         id="rect86255"
         width="19.27722"
         height="0.19814195"
         x="107.25093"
         y="120.44965"
         ry="0" />
      <path
         style="fill:none;fill-opacity:1;stroke:#000000;stroke-width:0.5;stroke-linecap:butt;stroke-linejoin:miter;stroke-dasharray:none;stroke-opacity:1"
         id="path88439"
         d="m 109.12166,119.93748 a 7.9522738,6.6750488 0 0 1 7.95228,-6.67505 7.9522738,6.6750488 0 0 1 7.95227,6.67505 h -7.95227 z" />
      <ellipse
         style="fill:none;fill-opacity:1;stroke:#000000;stroke-width:0.25;stroke-linecap:butt;stroke-linejoin:miter;stroke-dasharray:none;stroke-opacity:1"
         id="path90619"
         cx="117.07394"
         cy="112.76786"
         rx="0.43461797"
         ry="0.35620898" />
      <path
         style="fill:none;fill-opacity:1;stroke:#000000;stroke-width:0.5;stroke-linecap:round;stroke-linejoin:bevel;stroke-miterlimit:0;stroke-dasharray:none;stroke-dashoffset:0;stroke-opacity:1;paint-order:markers stroke fill"
         id="path90890"
         d="m 111.26017,117.61172 a 1.9819839,1.697122 0 0 1 1.98198,-1.69712" />
    </g>
  </g>
</svg>
